<svg width="902" height="1282" viewBox="0 0 902 1282" fill="none" xmlns="http://www.w3.org/2000/svg">
<rect width="39.6102" height="39.6102" transform="matrix(-1 0 0 1 556.215 60.7227)" fill="#284571"/>
<rect width="39.6102" height="39.6102" transform="matrix(-1 0 0 1 556.215 126.742)" fill="#284571"/>
<rect width="39.6102" height="39.6102" transform="matrix(-1 0 0 1 523.203 93.7305)" fill="#284571"/>
<rect width="39.6102" height="39.6102" transform="matrix(-1 0 0 1 523.203 159.746)" fill="#284571"/>
<rect width="39.6102" height="39.6102" transform="matrix(-1 0 0 1 490.191 126.742)" fill="#284571"/>
<rect width="39.6102" height="39.6102" transform="matrix(-1 0 0 1 490.191 192.758)" fill="#284571"/>
<rect width="39.6102" height="39.6102" transform="matrix(-1 0 0 1 457.184 159.746)" fill="#284571"/>
<rect width="39.6102" height="39.6102" transform="matrix(-1 0 0 1 457.184 225.766)" fill="#284571"/>
<rect width="39.6102" height="39.6102" transform="matrix(-1 0 0 1 424.18 192.758)" fill="#284571"/>
<rect width="39.6102" height="39.6102" transform="matrix(-1 0 0 1 589.219 93.7305)" fill="#284571"/>
<rect x="256.375" y="823.105" width="319.346" height="204.651" fill="#4B74B4"/>
<rect width="16.642" height="16.642" transform="matrix(0 -1 -1 0 236.137 416.051)" fill="white"/>
<rect width="16.642" height="16.642" transform="matrix(0 -1 -1 0 219.492 399.41)" fill="white"/>
<rect width="16.642" height="16.642" transform="matrix(0 -1 -1 0 202.852 382.766)" fill="white"/>
<rect width="16.642" height="16.642" transform="matrix(0 -1 -1 0 186.211 366.125)" fill="white"/>
<rect width="16.642" height="16.642" transform="matrix(0 -1 -1 0 169.57 349.484)" fill="white"/>
<rect width="16.642" height="16.642" transform="matrix(0 -1 -1 0 152.926 332.84)" fill="white"/>
<rect width="16.642" height="16.642" transform="matrix(0 -1 -1 0 136.285 316.199)" fill="white"/>
<rect width="16.642" height="16.642" transform="matrix(0 -1 -1 0 119.641 299.559)" fill="white"/>
<rect width="16.642" height="16.642" transform="matrix(0 -1 -1 0 119.641 299.559)" fill="white"/>
<rect width="16.642" height="16.642" transform="matrix(0 -1 -1 0 103.004 282.914)" fill="white"/>
<rect width="16.642" height="16.642" transform="matrix(0 -1 -1 0 86.3594 266.273)" fill="white"/>
<rect x="24.7383" y="245.129" width="20.2402" height="20.2402" transform="rotate(-90 24.7383 245.129)" fill="#D0FF00"/>
<rect x="44.9766" y="265.371" width="20.2402" height="20.2402" transform="rotate(-90 44.9766 265.371)" fill="#D0FF00"/>
<rect x="44.9766" y="224.891" width="20.2402" height="20.2402" transform="rotate(-90 44.9766 224.891)" fill="#D0FF00"/>
<rect x="65.2188" y="245.129" width="20.2402" height="20.2402" transform="rotate(-90 65.2188 245.129)" fill="#D0FF00"/>
<rect x="38.2305" y="87.707" width="395.809" height="42.7294" fill="#6E8FC2"/>
<rect x="267.621" y="2.25" width="395.809" height="67.4675" fill="#6E8FC2"/>
<rect x="96.7031" y="130.438" width="283.363" height="49.4761" fill="#5379B7"/>
<rect x="675.289" y="1041.25" width="40.1073" height="40.1073" fill="#D0FF00"/>
<rect x="755.52" y="1041.25" width="40.1073" height="40.1073" fill="#D0FF00"/>
<rect x="835.723" y="1041.25" width="40.1073" height="40.1073" fill="#D0FF00"/>
<rect x="635.195" y="1081.36" width="40.1073" height="40.1073" fill="#D0FF00"/>
<rect x="715.422" y="1081.36" width="40.1073" height="40.1073" fill="#D0FF00"/>
<rect x="715.422" y="1121.46" width="40.1073" height="40.1073" fill="#D0FF00"/>
<rect x="755.52" y="1161.57" width="40.1073" height="40.1073" fill="#D0FF00"/>
<rect x="795.613" y="1081.36" width="40.1073" height="40.1073" fill="#D0FF00"/>
<rect x="675.289" y="1121.46" width="40.1073" height="40.1073" fill="#D0FF00"/>
<rect x="755.52" y="1121.46" width="40.1073" height="40.1073" fill="#D0FF00"/>
<rect x="835.723" y="1121.46" width="40.1073" height="40.1073" fill="#D0FF00"/>
<rect x="635.195" y="1161.57" width="40.1073" height="40.1073" fill="#D0FF00"/>
<rect x="715.422" y="1161.57" width="40.1073" height="40.1073" fill="#D0FF00"/>
<rect x="795.613" y="1161.57" width="40.1073" height="40.1073" fill="#D0FF00"/>
<rect x="675.289" y="1201.68" width="40.1073" height="40.1073" fill="#D0FF00"/>
<rect x="755.52" y="1201.68" width="40.1073" height="40.1073" fill="#D0FF00"/>
<rect x="835.723" y="1201.68" width="40.1073" height="40.1073" fill="#D0FF00"/>
<rect x="635.195" y="1241.79" width="40.1073" height="40.1073" fill="#D0FF00"/>
<rect x="715.422" y="1241.79" width="40.1073" height="40.1073" fill="#D0FF00"/>
<rect x="795.613" y="1241.79" width="40.1073" height="40.1073" fill="#D0FF00"/>
<circle cx="530.741" cy="242.885" r="67.4675" fill="url(#paint0_radial_863_1770)"/>
<circle cx="347.455" cy="333.966" r="158.549" fill="url(#paint1_radial_863_1770)"/>
<rect x="426.051" y="351.836" width="180.153" height="180.153" stroke="#98B0D4" stroke-width="20"/>
<rect x="110.199" y="710.656" width="15.7424" height="15.7424" fill="#D0FF00"/>
<rect x="94.4531" y="726.398" width="15.7424" height="15.7424" fill="#D0FF00"/>
<rect x="78.7109" y="742.141" width="15.7424" height="15.7424" fill="#D0FF00"/>
<rect x="62.9688" y="757.883" width="15.7424" height="15.7424" fill="#D0FF00"/>
<rect x="47.2266" y="773.625" width="15.7424" height="15.7424" fill="#D0FF00"/>
<rect x="31.4844" y="789.367" width="15.7424" height="15.7424" fill="#D0FF00"/>
<rect x="15.7422" y="805.109" width="15.7424" height="15.7424" fill="#D0FF00"/>
<rect y="820.855" width="15.7424" height="15.7424" fill="#D0FF00"/>
<rect y="852.336" width="15.7424" height="15.7424" transform="rotate(-90 0 852.336)" fill="#D0FF00"/>
<rect x="15.7422" y="868.082" width="15.7424" height="15.7424" transform="rotate(-90 15.7422 868.082)" fill="#D0FF00"/>
<rect x="31.4844" y="883.824" width="15.7424" height="15.7424" transform="rotate(-90 31.4844 883.824)" fill="#D0FF00"/>
<rect x="47.2266" y="899.566" width="15.7424" height="15.7424" transform="rotate(-90 47.2266 899.566)" fill="#D0FF00"/>
<rect x="62.9688" y="915.309" width="15.7424" height="15.7424" transform="rotate(-90 62.9688 915.309)" fill="#D0FF00"/>
<rect x="78.7109" y="931.051" width="15.7424" height="15.7424" transform="rotate(-90 78.7109 931.051)" fill="#D0FF00"/>
<rect x="94.4531" y="946.793" width="15.7424" height="15.7424" transform="rotate(-90 94.4531 946.793)" fill="#D0FF00"/>
<rect x="110.199" y="962.535" width="15.7424" height="15.7424" transform="rotate(-90 110.199 962.535)" fill="#D0FF00"/>
<rect x="141.68" y="962.535" width="15.7424" height="15.7424" transform="rotate(-180 141.68 962.535)" fill="#D0FF00"/>
<rect x="157.426" y="946.793" width="15.7424" height="15.7424" transform="rotate(-180 157.426 946.793)" fill="#D0FF00"/>
<rect x="173.168" y="931.051" width="15.7424" height="15.7424" transform="rotate(-180 173.168 931.051)" fill="#D0FF00"/>
<rect x="188.91" y="915.309" width="15.7424" height="15.7424" transform="rotate(-180 188.91 915.309)" fill="#D0FF00"/>
<rect x="204.652" y="899.566" width="15.7424" height="15.7424" transform="rotate(-180 204.652 899.566)" fill="#D0FF00"/>
<rect x="220.395" y="883.824" width="15.7424" height="15.7424" transform="rotate(-180 220.395 883.824)" fill="#D0FF00"/>
<rect x="236.137" y="868.082" width="15.7424" height="15.7424" transform="rotate(-180 236.137 868.082)" fill="#D0FF00"/>
<rect x="251.879" y="852.34" width="15.7424" height="15.7424" transform="rotate(-180 251.879 852.34)" fill="#D0FF00"/>
<rect x="251.879" y="820.852" width="15.7424" height="15.7424" transform="rotate(90 251.879 820.852)" fill="#D0FF00"/>
<rect x="236.137" y="805.109" width="15.7424" height="15.7424" transform="rotate(90 236.137 805.109)" fill="#D0FF00"/>
<rect x="220.395" y="789.367" width="15.7424" height="15.7424" transform="rotate(90 220.395 789.367)" fill="#D0FF00"/>
<rect x="204.652" y="773.625" width="15.7424" height="15.7424" transform="rotate(90 204.652 773.625)" fill="#D0FF00"/>
<rect x="188.91" y="757.883" width="15.7424" height="15.7424" transform="rotate(90 188.91 757.883)" fill="#D0FF00"/>
<rect x="173.168" y="742.141" width="15.7424" height="15.7424" transform="rotate(90 173.168 742.141)" fill="#D0FF00"/>
<rect x="157.426" y="726.398" width="15.7424" height="15.7424" transform="rotate(90 157.426 726.398)" fill="#D0FF00"/>
<rect x="141.68" y="710.656" width="15.7424" height="15.7424" transform="rotate(90 141.68 710.656)" fill="#D0FF00"/>
<rect x="116.488" y="761.031" width="9.44544" height="9.44544" fill="#D0FF00"/>
<rect x="107.039" y="770.477" width="9.44544" height="9.44544" fill="#D0FF00"/>
<rect x="97.5938" y="779.922" width="9.44544" height="9.44544" fill="#D0FF00"/>
<rect x="88.1484" y="789.367" width="9.44544" height="9.44544" fill="#D0FF00"/>
<rect x="78.6992" y="798.812" width="9.44544" height="9.44544" fill="#D0FF00"/>
<rect x="69.2617" y="808.258" width="9.44544" height="9.44544" fill="#D0FF00"/>
<rect x="59.8125" y="817.703" width="9.44544" height="9.44544" fill="#D0FF00"/>
<rect x="50.3672" y="827.148" width="9.44544" height="9.44544" fill="#D0FF00"/>
<rect x="50.3672" y="846.043" width="9.44544" height="9.44544" transform="rotate(-90 50.3672 846.043)" fill="#D0FF00"/>
<rect x="59.8125" y="855.488" width="9.44544" height="9.44544" transform="rotate(-90 59.8125 855.488)" fill="#D0FF00"/>
<rect x="69.2617" y="864.934" width="9.44544" height="9.44544" transform="rotate(-90 69.2617 864.934)" fill="#D0FF00"/>
<rect x="78.6992" y="874.379" width="9.44544" height="9.44544" transform="rotate(-90 78.6992 874.379)" fill="#D0FF00"/>
<rect x="88.1484" y="883.824" width="9.44544" height="9.44544" transform="rotate(-90 88.1484 883.824)" fill="#D0FF00"/>
<rect x="97.5938" y="893.27" width="9.44544" height="9.44544" transform="rotate(-90 97.5938 893.27)" fill="#D0FF00"/>
<rect x="107.039" y="902.715" width="9.44544" height="9.44544" transform="rotate(-90 107.039 902.715)" fill="#D0FF00"/>
<rect x="116.488" y="912.16" width="9.44544" height="9.44544" transform="rotate(-90 116.488 912.16)" fill="#D0FF00"/>
<rect x="135.379" y="912.16" width="9.44544" height="9.44544" transform="rotate(-180 135.379 912.16)" fill="#D0FF00"/>
<rect x="144.828" y="902.715" width="9.44544" height="9.44544" transform="rotate(-180 144.828 902.715)" fill="#D0FF00"/>
<rect x="154.273" y="893.27" width="9.44544" height="9.44544" transform="rotate(-180 154.273 893.27)" fill="#D0FF00"/>
<rect x="163.719" y="883.824" width="9.44544" height="9.44544" transform="rotate(-180 163.719 883.824)" fill="#D0FF00"/>
<rect x="173.168" y="874.379" width="9.44544" height="9.44544" transform="rotate(-180 173.168 874.379)" fill="#D0FF00"/>
<rect x="182.605" y="864.934" width="9.44544" height="9.44544" transform="rotate(-180 182.605 864.934)" fill="#D0FF00"/>
<rect x="192.055" y="855.484" width="9.44544" height="9.44544" transform="rotate(-180 192.055 855.484)" fill="#D0FF00"/>
<rect x="201.5" y="846.043" width="9.44544" height="9.44544" transform="rotate(-180 201.5 846.043)" fill="#D0FF00"/>
<rect x="201.5" y="827.148" width="9.44544" height="9.44544" transform="rotate(90 201.5 827.148)" fill="#D0FF00"/>
<rect x="192.055" y="817.703" width="9.44544" height="9.44544" transform="rotate(90 192.055 817.703)" fill="#D0FF00"/>
<rect x="182.605" y="808.258" width="9.44544" height="9.44544" transform="rotate(90 182.605 808.258)" fill="#D0FF00"/>
<rect x="173.168" y="798.812" width="9.44544" height="9.44544" transform="rotate(90 173.168 798.812)" fill="#D0FF00"/>
<rect x="163.719" y="789.367" width="9.44544" height="9.44544" transform="rotate(90 163.719 789.367)" fill="#D0FF00"/>
<rect x="154.273" y="779.922" width="9.44544" height="9.44544" transform="rotate(90 154.273 779.922)" fill="#D0FF00"/>
<rect x="144.828" y="770.477" width="9.44544" height="9.44544" transform="rotate(90 144.828 770.477)" fill="#D0FF00"/>
<rect x="135.379" y="761.031" width="9.44544" height="9.44544" transform="rotate(90 135.379 761.031)" fill="#D0FF00"/>
<rect y="924.305" width="278.865" height="204.651" fill="#1C3553"/>
<rect x="278.867" y="996.27" width="310.35" height="204.651" fill="#1C3553"/>
<rect x="123.695" y="1195.93" width="40.6538" height="40.6538" transform="rotate(-45 123.695 1195.93)" fill="#D0FF00"/>
<rect x="180.895" y="1195.93" width="40.6538" height="40.6538" transform="rotate(-45 180.895 1195.93)" fill="#D0FF00"/>
<rect x="123.695" y="1253.14" width="40.6538" height="40.6538" transform="rotate(-45 123.695 1253.14)" fill="#D0FF00"/>
<rect x="180.895" y="1253.14" width="40.6538" height="40.6538" transform="rotate(-45 180.895 1253.14)" fill="#D0FF00"/>
<rect x="107.945" y="816.355" width="22.4892" height="22.4892" fill="#284571"/>
<rect x="125.938" y="834.348" width="22.4892" height="22.4892" fill="#284571"/>
<rect x="699.414" y="69.7188" width="22.4892" height="292.359" fill="#26446A"/>
<rect x="733.148" y="69.7188" width="22.4892" height="292.359" fill="#26446A"/>
<path d="M670.748 225.646C650.524 160.482 700.708 98.3139 728.328 75.3754V31.8401C685.638 -19.8417 636.572 2.81583 617.376 20.6048C654.452 16.1108 671.211 29.9668 674.956 37.4566C632.258 25.0979 601.926 44.4786 592.098 55.7138C557.268 95.0369 586.013 147.936 604.739 169.47C596.875 97.5648 652.957 73.0347 681.982 69.7578C587.606 121.44 635.169 195.217 670.748 225.646Z" fill="#D0FF00"/>
<path d="M784.979 225.646C805.202 160.482 755.018 98.3139 727.398 75.3754V31.8401C770.088 -19.8417 819.154 2.81583 838.351 20.6048C801.275 16.1108 784.516 29.9668 780.771 37.4566C823.468 25.0979 853.8 44.4786 863.629 55.7138C898.458 95.0369 869.713 147.936 850.987 169.47C858.852 97.5648 802.769 73.0347 773.745 69.7578C868.12 121.44 820.557 195.217 784.979 225.646Z" fill="#D0FF00"/>
<path d="M589.219 467.757V218.145L838.831 467.757H589.219Z" fill="#2D4F7C"/>
<rect x="589.219" y="218.145" width="41.602" height="41.602" fill="#2D4F7C"/>
<rect x="630.816" y="259.75" width="41.602" height="41.602" fill="#2D4F7C"/>
<rect x="672.43" y="301.348" width="41.602" height="41.602" fill="#2D4F7C"/>
<rect x="714.027" y="342.949" width="41.602" height="41.602" fill="#2D4F7C"/>
<rect x="755.621" y="384.555" width="41.602" height="41.602" fill="#2D4F7C"/>
<rect x="797.238" y="426.152" width="41.602" height="41.602" fill="#2D4F7C"/>
<rect x="354.598" y="996.27" width="39.6102" height="39.6102" fill="#4B74B4"/>
<rect x="354.598" y="1062.29" width="39.6102" height="39.6102" fill="#4B74B4"/>
<rect x="387.609" y="1029.28" width="39.6102" height="39.6102" fill="#4B74B4"/>
<rect x="387.609" y="1095.29" width="39.6102" height="39.6102" fill="#4B74B4"/>
<rect x="420.621" y="1062.29" width="39.6102" height="39.6102" fill="#4B74B4"/>
<rect x="420.621" y="1128.3" width="39.6102" height="39.6102" fill="#4B74B4"/>
<rect x="453.629" y="1095.29" width="39.6102" height="39.6102" fill="#4B74B4"/>
<rect x="453.629" y="1161.31" width="39.6102" height="39.6102" fill="#4B74B4"/>
<rect x="486.633" y="1128.3" width="39.6102" height="39.6102" fill="#4B74B4"/>
<rect x="321.594" y="1029.28" width="39.6102" height="39.6102" fill="#4B74B4"/>
<path d="M83.0515 466.748C65.567 438.755 20.3986 411.346 0 401.14C195.827 366.149 288.495 511.944 310.35 589.215C271.884 557.724 233.127 549.851 218.557 549.851C113.649 549.851 104.907 501.738 83.0515 466.748Z" fill="#A1BAD8"/>
<rect x="65.2188" y="1094.85" width="34.1085" height="34.1084" transform="rotate(-90 65.2188 1094.85)" fill="#4B74B4"/>
<rect x="65.2188" y="1026.63" width="34.1085" height="34.1084" transform="rotate(-90 65.2188 1026.63)" fill="#4B74B4"/>
<rect x="65.2188" y="958.418" width="34.1085" height="34.1084" transform="rotate(-90 65.2188 958.418)" fill="#4B74B4"/>
<rect x="133.438" y="1094.85" width="34.1085" height="34.1084" transform="rotate(-90 133.438 1094.85)" fill="#4B74B4"/>
<rect x="133.438" y="1026.63" width="34.1085" height="34.1084" transform="rotate(-90 133.438 1026.63)" fill="#4B74B4"/>
<rect x="167.543" y="1128.96" width="34.1085" height="34.1084" transform="rotate(-90 167.543 1128.96)" fill="#4B74B4"/>
<rect x="167.543" y="1060.74" width="34.1085" height="34.1084" transform="rotate(-90 167.543 1060.74)" fill="#4B74B4"/>
<rect x="167.543" y="992.523" width="34.1085" height="34.1084" transform="rotate(-90 167.543 992.523)" fill="#4B74B4"/>
<rect x="201.652" y="1094.85" width="34.1085" height="34.1084" transform="rotate(-90 201.652 1094.85)" fill="#4B74B4"/>
<rect x="201.652" y="958.418" width="34.1085" height="34.1084" transform="rotate(-90 201.652 958.418)" fill="#4B74B4"/>
<circle cx="163.049" cy="365.448" r="43.8538" fill="url(#paint2_radial_863_1770)"/>
<path fill-rule="evenodd" clip-rule="evenodd" d="M163.945 417.85C167.064 418.38 170.289 418.578 173.58 418.408C197.768 417.163 216.367 396.546 215.122 372.358C215.003 370.042 214.706 367.777 214.245 365.576C234.049 368.938 249.584 385.663 250.66 406.56C251.905 430.747 233.306 451.365 209.118 452.61C187.247 453.736 168.294 438.636 163.945 417.85Z" fill="#D0FF00"/>
<rect x="653" y="766.398" width="16.642" height="16.642" transform="rotate(-90 653 766.398)" fill="white"/>
<rect x="669.645" y="749.758" width="16.642" height="16.642" transform="rotate(-90 669.645 749.758)" fill="white"/>
<rect x="686.285" y="733.113" width="16.642" height="16.642" transform="rotate(-90 686.285 733.113)" fill="white"/>
<rect x="702.926" y="716.473" width="16.642" height="16.642" transform="rotate(-90 702.926 716.473)" fill="white"/>
<rect x="719.566" y="699.832" width="16.642" height="16.642" transform="rotate(-90 719.566 699.832)" fill="white"/>
<rect x="736.211" y="683.188" width="16.642" height="16.642" transform="rotate(-90 736.211 683.188)" fill="white"/>
<rect x="752.852" y="666.547" width="16.642" height="16.642" transform="rotate(-90 752.852 666.547)" fill="white"/>
<rect x="769.496" y="649.906" width="16.642" height="16.642" transform="rotate(-90 769.496 649.906)" fill="white"/>
<rect x="769.496" y="649.906" width="16.642" height="16.642" transform="rotate(-90 769.496 649.906)" fill="white"/>
<rect x="786.133" y="633.262" width="16.642" height="16.642" transform="rotate(-90 786.133 633.262)" fill="white"/>
<rect x="802.777" y="616.621" width="16.642" height="16.642" transform="rotate(-90 802.777 616.621)" fill="white"/>
<rect x="823.91" y="555" width="20.2402" height="20.2402" fill="#D0FF00"/>
<rect x="803.672" y="575.242" width="20.2402" height="20.2402" fill="#D0FF00"/>
<rect x="844.152" y="575.242" width="20.2402" height="20.2402" fill="#D0FF00"/>
<rect x="823.91" y="595.48" width="20.2402" height="20.2402" fill="#D0FF00"/>
<path d="M818.3 755.939C835.785 727.947 880.953 700.537 901.352 690.331C705.525 655.341 612.857 801.135 591.001 878.407C629.467 846.915 668.225 839.042 682.795 839.042C787.702 839.042 796.444 790.93 818.3 755.939Z" fill="#A1BAD8"/>
<rect x="193.406" y="467.773" width="499.259" height="411.551" fill="#3B5C92"/>
<ellipse cx="443.036" cy="673.549" rx="249.63" ry="205.776" fill="white"/>
<rect x="526.25" y="879" width="89.9566" height="89.9566" fill="#0E1B2B"/>
<rect x="616.207" y="879" width="89.9566" height="89.9566" fill="#356097"/>
<rect x="706.164" y="879" width="89.9566" height="89.9566" fill="#4F79B8"/>
<rect x="526.25" y="968.957" width="89.9566" height="89.9566" fill="#003758"/>
<rect x="616.207" y="968.957" width="89.9566" height="89.9566" fill="#4C99CF"/>
<rect x="706.164" y="968.957" width="89.9566" height="89.9566" fill="#5DA1D2"/>
<rect x="526.25" y="1058.91" width="89.9566" height="89.9566" fill="#6EA8D6"/>
<rect x="616.207" y="1058.91" width="89.9566" height="89.9566" fill="#3C66A2"/>
<rect x="706.164" y="1058.91" width="89.9566" height="89.9566" fill="#17304E"/>
<circle cx="43.8538" cy="43.8538" r="43.8538" transform="matrix(-1 0 0 1 819.719 752.785)" fill="url(#paint3_radial_863_1770)"/>
<path fill-rule="evenodd" clip-rule="evenodd" d="M774.969 849.042C771.85 849.571 768.625 849.769 765.334 849.6C741.146 848.355 722.547 827.737 723.792 803.55C723.912 801.234 724.208 798.969 724.669 796.768C704.865 800.129 689.33 816.854 688.254 837.751C687.009 861.939 705.608 882.556 729.796 883.801C751.668 884.927 770.62 869.827 774.969 849.042Z" fill="#D0FF00"/>
<defs>
<radialGradient id="paint0_radial_863_1770" cx="0" cy="0" r="1" gradientUnits="userSpaceOnUse" gradientTransform="translate(530.741 242.885) rotate(90) scale(67.4675)">
<stop stop-color="#EDFF9E"/>
<stop offset="1" stop-color="#D0FF00"/>
</radialGradient>
<radialGradient id="paint1_radial_863_1770" cx="0" cy="0" r="1" gradientUnits="userSpaceOnUse" gradientTransform="translate(347.455 333.966) rotate(90) scale(158.549)">
<stop stop-color="#3C609C"/>
<stop offset="1" stop-color="#17304E"/>
</radialGradient>
<radialGradient id="paint2_radial_863_1770" cx="0" cy="0" r="1" gradientUnits="userSpaceOnUse" gradientTransform="translate(163.049 365.448) rotate(90) scale(43.8538)">
<stop stop-color="#EDFF9E"/>
<stop offset="1" stop-color="#D0FF00"/>
</radialGradient>
<radialGradient id="paint3_radial_863_1770" cx="0" cy="0" r="1" gradientUnits="userSpaceOnUse" gradientTransform="translate(43.8538 43.8538) rotate(90) scale(43.8538)">
<stop stop-color="#EDFF9E"/>
<stop offset="1" stop-color="#D0FF00"/>
</radialGradient>
</defs>
</svg>
