<svg width="237" height="68" viewBox="0 0 237 68" fill="none" xmlns="http://www.w3.org/2000/svg">
<path d="M59.3153 31.598C59.3153 33.1007 59.5453 34.22 60.0053 34.956C60.4653 35.692 61.1706 36.106 62.1213 36.198V41.258H61.9833C59.2539 41.258 57.1533 40.4607 55.6813 38.866C54.2399 37.2713 53.5193 34.9867 53.5193 32.012V12.002H59.3153V31.598ZM38.0633 21.57H43.8133V12.278H49.6093V41.258H43.8133V26.63H38.0633V21.57ZM25.8273 33.99C25.8273 35.462 26.4406 36.198 27.6673 36.198H38.3393V41.258H15.1093V36.198H20.7213C20.2613 35.7687 20.0313 35.002 20.0313 33.898V21.616H36.2233V26.676H25.8273V33.99ZM92.9657 12.002H98.7617V30.494C98.7617 32.242 99.053 33.6067 99.6357 34.588C100.218 35.5693 101.046 36.106 102.12 36.198V41.258H101.982C99.1297 41.258 96.9064 40.4147 95.3117 38.728C93.7477 37.0107 92.9657 34.6187 92.9657 31.552V12.002ZM62.0077 41.258V36.198H76.4517C77.709 36.198 78.767 35.7533 79.6257 34.864C80.4844 33.944 80.9137 32.8093 80.9137 31.46C80.9137 30.08 80.4844 28.9453 79.6257 28.056C78.767 27.136 77.709 26.676 76.4517 26.676C75.1944 26.676 74.1364 27.136 73.2777 28.056C72.4497 28.9453 72.0357 30.08 72.0357 31.46C72.0357 32.5333 72.3424 33.5147 72.9557 34.404H67.1597C66.6077 33.5147 66.3317 32.4567 66.3317 31.23C66.3317 29.4207 66.761 27.78 67.6197 26.308C68.509 24.836 69.7204 23.686 71.2537 22.858C72.8177 22.03 74.5504 21.616 76.4517 21.616C78.353 21.616 80.0704 22.03 81.6037 22.858C83.1677 23.686 84.3944 24.836 85.2837 26.308C86.173 27.78 86.6177 29.4207 86.6177 31.23C86.6177 33.1313 86.173 34.8487 85.2837 36.382C84.3944 37.8847 83.1677 39.0807 81.6037 39.97C80.0704 40.8287 78.353 41.258 76.4517 41.258H62.0077ZM141.547 31.598C141.547 33.1007 141.823 34.22 142.375 34.956C142.927 35.692 143.77 36.106 144.905 36.198V41.258H144.767C141.884 41.258 139.661 40.4607 138.097 38.866C136.533 37.2713 135.751 34.9867 135.751 32.012V28.976H127.793V23.916H135.751V12.002H141.547V31.598ZM113.119 33.99C113.119 35.462 113.732 36.198 114.959 36.198H127.241V41.258H102.033V36.198H108.013C107.553 35.7687 107.323 35.002 107.323 33.898V19.868H125.493V24.928H113.119V27.918H125.125V32.518H113.119V33.99Z" fill="white"/>
<path d="M185.997 26.262H179.281V31.598C179.281 33.1313 179.588 34.266 180.201 35.002C180.845 35.7073 181.888 36.106 183.329 36.198H184.433V41.258H183.191C179.971 41.258 177.549 40.476 175.923 38.912C174.298 37.3173 173.485 35.0173 173.485 32.012V12.002H179.281V21.202H185.997V26.262ZM149.197 26.446V21.386H167.643V27.228C167.643 36.5813 161.771 41.258 150.025 41.258H144.321V36.198H150.025C154.196 36.198 157.201 35.4773 159.041 34.036C160.912 32.564 161.847 30.4327 161.847 27.642V26.446H149.197ZM195.065 32.426C193.961 32.426 193.194 32.2267 192.765 31.828C192.335 31.4293 192.121 30.678 192.121 29.574V15.82H214.109V20.88H197.917V27.366H214.109V32.426H195.065ZM184.347 41.258V36.198H221.699V41.258H184.347ZM194.053 59.934C193.071 59.934 192.305 59.6887 191.753 59.198C191.231 58.738 190.971 58.0327 190.971 57.082V45.214H196.767V54.874H214.523V59.934H194.053Z" fill="white"/>
<rect x="135.84" width="5.71349" height="5.7135" fill="white"/>
<rect x="130" y="5.84375" width="5.71349" height="5.7135" fill="white"/>
<rect x="141.688" y="5.84375" width="5.71349" height="5.7135" fill="white"/>
<rect x="135.84" y="11.6875" width="5.71349" height="5.7135" fill="white"/>
<rect x="5.17188" y="31" width="5.05633" height="5.05633" fill="white"/>
<rect y="36.1719" width="5.05633" height="5.05633" fill="white"/>
<rect x="10.3438" y="36.1719" width="5.05633" height="5.05633" fill="white"/>
<rect x="5.17188" y="41.3438" width="5.05633" height="5.05633" fill="white"/>
<rect x="226.172" y="31" width="5.05633" height="5.05633" fill="white"/>
<rect x="221" y="36.1719" width="5.05633" height="5.05633" fill="white"/>
<rect x="231.344" y="36.1719" width="5.05633" height="5.05633" fill="white"/>
<rect x="226.172" y="41.3438" width="5.05633" height="5.05633" fill="white"/>
</svg>
