<svg width="820" height="294" viewBox="0 0 820 294" fill="none" xmlns="http://www.w3.org/2000/svg">
<path d="M209.654 114.106C209.654 119.398 210.464 123.34 212.084 125.932C213.704 128.524 216.188 129.982 219.536 130.306V148.126H219.05C209.438 148.126 202.04 145.318 196.856 139.702C191.78 134.086 189.242 126.04 189.242 115.564V45.094H209.654V114.106ZM134.81 78.79H155.06V46.066H175.472V148.126H155.06V96.61H134.81V78.79ZM91.7178 122.53C91.7178 127.714 93.8778 130.306 98.1978 130.306H135.782V148.126H53.9718V130.306H73.7358C72.1158 128.794 71.3058 126.094 71.3058 122.206V78.952H128.33V96.772H91.7178V122.53ZM328.162 45.094H348.574V110.218C348.574 116.374 349.6 121.18 351.652 124.636C353.704 128.092 356.62 129.982 360.4 130.306V148.126H359.914C349.87 148.126 342.04 145.156 336.424 139.216C330.916 133.168 328.162 124.744 328.162 113.944V45.094ZM219.136 148.126V130.306H270.004C274.432 130.306 278.158 128.74 281.182 125.608C284.206 122.368 285.718 118.372 285.718 113.62C285.718 108.76 284.206 104.764 281.182 101.632C278.158 98.392 274.432 96.772 270.004 96.772C265.576 96.772 261.85 98.392 258.826 101.632C255.91 104.764 254.452 108.76 254.452 113.62C254.452 117.4 255.532 120.856 257.692 123.988H237.28C235.336 120.856 234.364 117.13 234.364 112.81C234.364 106.438 235.876 100.66 238.9 95.476C242.032 90.292 246.298 86.242 251.698 83.326C257.206 80.41 263.308 78.952 270.004 78.952C276.7 78.952 282.748 80.41 288.148 83.326C293.656 86.242 297.976 90.292 301.108 95.476C304.24 100.66 305.806 106.438 305.806 112.81C305.806 119.506 304.24 125.554 301.108 130.954C297.976 136.246 293.656 140.458 288.148 143.59C282.748 146.614 276.7 148.126 270.004 148.126H219.136ZM499.253 114.106C499.253 119.398 500.225 123.34 502.169 125.932C504.113 128.524 507.083 129.982 511.079 130.306V148.126H510.593C500.441 148.126 492.611 145.318 487.103 139.702C481.595 134.086 478.841 126.04 478.841 115.564V104.872H450.815V87.052H478.841V45.094H499.253V114.106ZM399.137 122.53C399.137 127.714 401.297 130.306 405.617 130.306H448.871V148.126H360.095V130.306H381.155C379.535 128.794 378.725 126.094 378.725 122.206V72.796H442.715V90.616H399.137V101.146H441.419V117.346H399.137V122.53Z" fill="white"/>
<path d="M640.055 147.314H616.403V166.106C616.403 171.506 617.483 175.502 619.643 178.094C621.911 180.578 625.583 181.982 630.659 182.306H634.547V200.126H630.173C618.833 200.126 610.301 197.372 604.577 191.864C598.853 186.248 595.991 178.148 595.991 167.564V97.094H616.403V129.494H640.055V147.314ZM510.455 147.962V130.142H575.417V150.716C575.417 183.656 554.735 200.126 513.371 200.126H493.283V182.306H513.371C528.059 182.306 538.643 179.768 545.123 174.692C551.711 169.508 555.005 162.002 555.005 152.174V147.962H510.455ZM671.988 169.022C668.1 169.022 665.4 168.32 663.888 166.916C662.376 165.512 661.62 162.866 661.62 158.978V110.54H739.056V128.36H682.032V151.202H739.056V169.022H671.988ZM634.242 200.126V182.306H765.786V200.126H634.242ZM668.424 265.898C664.968 265.898 662.268 265.034 660.324 263.306C658.488 261.686 657.57 259.202 657.57 255.854V214.058H677.982V248.078H740.514V265.898H668.424Z" fill="white"/>
<rect x="18.2656" y="112" width="17.863" height="17.863" fill="white"/>
<rect y="130.27" width="17.863" height="17.863" fill="white"/>
<rect x="36.5391" y="130.27" width="17.863" height="17.863" fill="white"/>
<rect x="18.2656" y="148.539" width="17.863" height="17.863" fill="white"/>
<rect x="783.27" y="164" width="17.863" height="17.863" fill="white"/>
<rect x="765" y="182.27" width="17.863" height="17.863" fill="white"/>
<rect x="801.535" y="182.27" width="17.863" height="17.863" fill="white"/>
<rect x="783.27" y="200.539" width="17.863" height="17.863" fill="white"/>
<rect x="478.855" width="20.3925" height="20.3925" fill="white"/>
<rect x="458" y="20.8555" width="20.3925" height="20.3925" fill="white"/>
<rect x="499.707" y="20.8555" width="20.3925" height="20.3925" fill="white"/>
<rect x="478.855" y="41.7109" width="20.3925" height="20.3925" fill="white"/>
</svg>
